<?xml version="1.0" encoding="utf-8"?>
<!-- Generator: Adobe Illustrator 23.0.6, SVG Export Plug-In . SVG Version: 6.00 Build 0)  -->
<svg version="1.1" xmlns="http://www.w3.org/2000/svg" xmlns:xlink="http://www.w3.org/1999/xlink" x="0px" y="0px"
	 viewBox="0 0 750 500" style="enable-background:new 0 0 750 500;" xml:space="preserve">
<style type="text/css">
	.st0{fill:#DBE8F0;}
	.st1{opacity:0.5;}
	.st2{fill:#FFFFFF;}
	.st3{fill:#7B1FA2;}
	.st4{fill:#FFA726;}
	.st5{fill:url(#SVGID_1_);}
	.st6{fill:url(#SVGID_2_);}
	.st7{opacity:0.8;fill:url(#SVGID_3_);}
	.st8{opacity:0.8;fill:url(#SVGID_4_);}
	.st9{opacity:0.8;fill:url(#SVGID_5_);}
	.st10{opacity:0.8;fill:url(#SVGID_6_);}
	.st11{opacity:0.8;fill:url(#SVGID_7_);}
	.st12{opacity:0.8;fill:url(#SVGID_8_);}
	.st13{fill:#CBDFEF;}
	.st14{opacity:0.8;fill:url(#SVGID_9_);}
	.st15{fill:url(#SVGID_10_);}
	.st16{fill:#809297;}
	.st17{fill:url(#XMLID_15_);}
	.st18{fill:#8A9EA2;}
	.st19{fill:url(#XMLID_16_);}
	.st20{fill:#92A7AC;}
	.st21{fill:url(#XMLID_29_);}
	.st22{opacity:0.1;fill:#FFFFFF;}
	.st23{fill:#FDC870;}
	.st24{fill:url(#SVGID_11_);}
	.st25{fill:url(#XMLID_30_);}
	.st26{fill:url(#SVGID_12_);}
	.st27{fill:url(#SVGID_13_);}
	.st28{fill:url(#SVGID_14_);}
	.st29{opacity:0.7;fill:url(#SVGID_15_);}
	.st30{opacity:0.7;fill:url(#SVGID_16_);}
	.st31{fill:url(#SVGID_17_);}
	.st32{opacity:0.8;fill:url(#SVGID_18_);}
	.st33{fill:url(#SVGID_19_);}
	.st34{fill:#FFB300;}
	.st35{fill:#FFA000;}
	.st36{fill:#FFCA28;}
	.st37{opacity:0.7;fill:url(#SVGID_20_);}
	.st38{opacity:0.7;fill:url(#SVGID_21_);}
	.st39{fill:url(#SVGID_22_);}
	.st40{opacity:0.8;fill:url(#SVGID_23_);}
	.st41{fill:url(#SVGID_24_);}
	.st42{fill:#D32F2F;}
	.st43{opacity:0.8;fill:url(#SVGID_25_);}
	.st44{fill:#EF5350;}
	.st45{fill:none;stroke:#FFFFFF;stroke-width:1.0404;stroke-miterlimit:10;}
	.st46{opacity:0.7;fill:url(#SVGID_26_);}
	.st47{opacity:0.7;fill:url(#SVGID_27_);}
	.st48{fill:url(#SVGID_28_);}
	.st49{fill:#25284C;}
	.st50{fill:#111638;}
	.st51{fill:#F5F5F5;}
	.st52{fill:#7B92B9;}
	.st53{fill:#6A7EA2;}
	.st54{fill:none;stroke:#FFFFFF;stroke-width:0.7521;stroke-miterlimit:10;}
	.st55{opacity:0.8;fill:url(#SVGID_29_);}
	.st56{opacity:0.8;fill:url(#SVGID_30_);}
	.st57{opacity:0.8;fill:url(#SVGID_31_);}
	.st58{fill:url(#SVGID_32_);}
	.st59{fill:url(#SVGID_33_);}
	.st60{opacity:0.7;fill:url(#SVGID_34_);}
	.st61{fill:url(#SVGID_35_);}
	.st62{fill:none;stroke:#FFFFFF;stroke-width:1.0404;stroke-linecap:round;stroke-linejoin:round;stroke-miterlimit:10;}
	.st63{fill:#FFEE58;}
	.st64{fill:none;stroke:#FFFFFF;stroke-width:0.5202;stroke-linecap:round;stroke-linejoin:round;stroke-miterlimit:10;}
	.st65{fill:url(#SVGID_36_);}
	.st66{fill:url(#SVGID_37_);}
	.st67{fill:url(#SVGID_38_);}
	.st68{opacity:0.8;fill:url(#SVGID_39_);}
	.st69{opacity:0.8;fill:url(#SVGID_40_);}
	.st70{opacity:0.8;fill:url(#SVGID_41_);}
	.st71{opacity:0.8;fill:url(#SVGID_42_);}
	.st72{opacity:0.8;fill:url(#SVGID_43_);}
	.st73{opacity:0.8;fill:url(#SVGID_44_);}
	.st74{opacity:0.8;fill:url(#SVGID_45_);}
	.st75{fill:url(#SVGID_46_);}
	.st76{fill:url(#XMLID_31_);}
	.st77{fill:url(#XMLID_32_);}
	.st78{fill:url(#XMLID_33_);}
	.st79{fill:url(#SVGID_47_);}
	.st80{fill:url(#XMLID_34_);}
	.st81{fill:url(#SVGID_48_);}
	.st82{fill:url(#SVGID_49_);}
	.st83{fill:url(#SVGID_50_);}
	.st84{opacity:0.7;fill:url(#SVGID_51_);}
	.st85{opacity:0.7;fill:url(#SVGID_52_);}
	.st86{fill:url(#SVGID_53_);}
	.st87{opacity:0.8;fill:url(#SVGID_54_);}
	.st88{fill:url(#SVGID_55_);}
	.st89{opacity:0.7;fill:url(#SVGID_56_);}
	.st90{opacity:0.7;fill:url(#SVGID_57_);}
	.st91{fill:url(#SVGID_58_);}
	.st92{opacity:0.8;fill:url(#SVGID_59_);}
	.st93{fill:url(#SVGID_60_);}
	.st94{opacity:0.8;fill:url(#SVGID_61_);}
	.st95{fill:none;stroke:#FFFFFF;stroke-width:1.3453;stroke-miterlimit:10;}
	.st96{opacity:0.7;fill:url(#SVGID_62_);}
	.st97{opacity:0.7;fill:url(#SVGID_63_);}
	.st98{fill:url(#SVGID_64_);}
	.st99{fill:none;stroke:#FFFFFF;stroke-width:0.9725;stroke-miterlimit:10;}
	.st100{opacity:0.8;fill:url(#SVGID_65_);}
	.st101{opacity:0.8;fill:url(#SVGID_66_);}
	.st102{opacity:0.8;fill:url(#SVGID_67_);}
	.st103{fill:url(#SVGID_68_);}
	.st104{fill:url(#SVGID_69_);}
	.st105{opacity:0.7;fill:url(#SVGID_70_);}
	.st106{fill:url(#SVGID_71_);}
	.st107{fill:none;stroke:#FFFFFF;stroke-width:1.3453;stroke-linecap:round;stroke-linejoin:round;stroke-miterlimit:10;}
	.st108{fill:none;stroke:#FFFFFF;stroke-width:0.6727;stroke-linecap:round;stroke-linejoin:round;stroke-miterlimit:10;}
	.st109{fill:url(#SVGID_72_);}
</style>
<g id="Background">
</g>
<g id="Object">
	<g>
		<g>
			<linearGradient id="SVGID_1_" gradientUnits="userSpaceOnUse" x1="395.3142" y1="437.6678" x2="395.3142" y2="37.3731">
				<stop  offset="1.860120e-03" style="stop-color:#AC24B9"/>
				<stop  offset="1" style="stop-color:#2E2142"/>
			</linearGradient>
			<path class="st5" d="M612.6,339.21c-0.63,3.66-1.37,7.29-2.21,10.91c-0.65,2.75-1.34,5.5-2.09,8.21
				c-4.16,15-10.09,29.99-18.27,43.24c-8.35,13.56-19.09,25.35-32.74,33.54c-7.35,4.42-15.22,7.62-23.41,10.01h-278.8
				c-26.96-14.64-50.63-40.4-45.48-70.57c4.47-26.25,8.68-52.44-0.53-76.7c-6.7-17.6-19.88-32.07-27.3-49.39
				c-18.38-42.96,4.73-81.86,39-105.71c1.24-0.87,2.5-1.71,3.76-2.53c0.3-0.19,0.61-0.39,0.91-0.58c1.4-0.89,2.78-1.82,4.14-2.77
				c2.95-2.06,5.79-4.22,8.59-6.49h0.01c2.09-1.71,4.15-3.45,6.18-5.26c0.48-0.41,0.97-0.84,1.44-1.28c2.79-2.51,5.53-5.1,8.24-7.73
				c1.42-1.38,2.83-2.79,4.24-4.2c10.97-11,21.54-22.53,33.13-32.56c11.04-9.56,23.01-17.77,37.1-22.89c8.81-3.19,17.86-5.43,27-6.7
				c36.14-5.08,73.75,4.55,103.09,27.03c1.44,1.1,2.87,2.24,4.29,3.4c15.17,12.4,29.12,28.22,35.29,46.48
				c7.77,22.98,19.23,45.16,40.13,58.83c17.24,11.26,33.56,18.74,47.29,35.11c4.95,5.9,9.22,12.12,12.85,18.6
				c2.96,5.29,5.51,10.73,7.66,16.32c2.86,7.44,5,15.1,6.5,22.93C616.42,298.26,616.11,319,612.6,339.21z"/>
			<linearGradient id="SVGID_2_" gradientUnits="userSpaceOnUse" x1="197.4874" y1="433.7083" x2="175.6416" y2="296.0793">
				<stop  offset="1.860120e-03" style="stop-color:#AC24B9"/>
				<stop  offset="1" style="stop-color:#2E2142"/>
			</linearGradient>
			<path class="st6" d="M178.65,385.8c-0.43,7.62,0.03,15.63,3.85,22.24c3.21,5.55,10.72,9.8,15.91,6.05
				c3.94-2.85,4.23-8.69,2.91-13.37c-1.32-4.68-3.83-9.07-4.19-13.92c-0.56-7.63,8.46-27.19-5.1-28.07
				C179.81,357.93,179.08,378.26,178.65,385.8z"/>
			<g>
				<linearGradient id="SVGID_3_" gradientUnits="userSpaceOnUse" x1="279.7903" y1="436.6037" x2="283.957" y2="379.4061">
					<stop  offset="0" style="stop-color:#FFFFFF;stop-opacity:0"/>
					<stop  offset="1" style="stop-color:#662D8D"/>
				</linearGradient>
				<ellipse class="st7" cx="281.52" cy="412.8" rx="26.3" ry="10.36"/>
				<linearGradient id="SVGID_4_" gradientUnits="userSpaceOnUse" x1="413.9608" y1="437.9697" x2="418.1275" y2="380.7724">
					<stop  offset="0" style="stop-color:#FFFFFF;stop-opacity:0"/>
					<stop  offset="1" style="stop-color:#662D8D"/>
				</linearGradient>
				<ellipse class="st8" cx="415.69" cy="414.17" rx="26.3" ry="10.36"/>
				<linearGradient id="SVGID_5_" gradientUnits="userSpaceOnUse" x1="424.3833" y1="376.0478" x2="238.0172" y2="373.775">
					<stop  offset="0" style="stop-color:#FFFFFF;stop-opacity:0"/>
					<stop  offset="1" style="stop-color:#662D8D"/>
				</linearGradient>
				<polygon class="st9" points="264.07,367.18 287.85,367.18 340.71,391.8 333.8,407.38 358.55,407.38 412.33,374.03 346.49,351 
					307.37,342.18 				"/>
				<linearGradient id="SVGID_6_" gradientUnits="userSpaceOnUse" x1="370.4171" y1="189.3752" x2="269.6586" y2="302.2547">
					<stop  offset="0" style="stop-color:#FFFFFF;stop-opacity:0"/>
					<stop  offset="1" style="stop-color:#662D8D"/>
				</linearGradient>
				<rect x="268.96" y="187.28" class="st10" width="130.33" height="85.5"/>
				<linearGradient id="SVGID_7_" gradientUnits="userSpaceOnUse" x1="679.0468" y1="358.8321" x2="464.9881" y2="358.8321">
					<stop  offset="0" style="stop-color:#FFFFFF;stop-opacity:0"/>
					<stop  offset="1" style="stop-color:#662D8D"/>
				</linearGradient>
				<path class="st11" d="M612.6,316.08v23.13c-0.63,3.66-1.37,7.29-2.21,10.91c-0.65,2.75-1.34,5.5-2.09,8.21
					c-4.16,15-10.09,29.99-18.27,43.24H521.9v-85.5H612.6z"/>
				<linearGradient id="SVGID_8_" gradientUnits="userSpaceOnUse" x1="647.7328" y1="294.6663" x2="419.618" y2="294.6663">
					<stop  offset="0" style="stop-color:#FFFFFF;stop-opacity:0"/>
					<stop  offset="1" style="stop-color:#662D8D"/>
				</linearGradient>
				<path class="st12" d="M612.6,278.45v60.76c-0.63,3.66-1.37,7.29-2.21,10.91H420.32V239.2h178.12
					c2.96,5.29,5.51,10.73,7.66,16.32C608.95,262.96,611.1,270.63,612.6,278.45z"/>
				<g>
					<path class="st13" d="M462.96,323.15v-61.04H326.51v61.04l0,0c0,10.08,6.66,20.16,19.98,27.85c26.64,15.38,69.84,15.38,96.48,0
						C456.3,343.31,462.96,333.23,462.96,323.15z"/>
					<linearGradient id="SVGID_9_" gradientUnits="userSpaceOnUse" x1="384.5569" y1="312.3224" x2="487.1279" y2="312.3224">
						<stop  offset="0" style="stop-color:#FFFFFF;stop-opacity:0"/>
						<stop  offset="1" style="stop-color:#662D8D"/>
					</linearGradient>
					<path class="st14" d="M462.96,323.15v-61.04H326.51v61.04l0,0c0,10.08,6.66,20.16,19.98,27.85c26.64,15.38,69.84,15.38,96.48,0
						C456.3,343.31,462.96,333.23,462.96,323.15z"/>
					<ellipse class="st2" cx="394.73" cy="262.11" rx="68.22" ry="39.39"/>
					<g>
						<linearGradient id="SVGID_10_" gradientUnits="userSpaceOnUse" x1="394.7346" y1="191.1809" x2="394.7346" y2="326.2433">
							<stop  offset="1.694780e-03" style="stop-color:#00D4C8"/>
							<stop  offset="1" style="stop-color:#00D2C7;stop-opacity:0"/>
						</linearGradient>
						<ellipse class="st15" cx="394.73" cy="254.46" rx="68.22" ry="39.39"/>
						<g>
							<path id="XMLID_25_" class="st16" d="M411.37,242.69c-0.24,7.11-8.1,12.62-17.56,12.31c-9.46-0.32-16.94-6.34-16.7-13.46
								c0.24-7.11,8.1-12.62,17.56-12.31C404.13,229.55,411.61,235.58,411.37,242.69z"/>
							<linearGradient id="XMLID_15_" gradientUnits="userSpaceOnUse" x1="377.0998" y1="242.1139" x2="411.3738" y2="242.1139">
								<stop  offset="3.946110e-03" style="stop-color:#FFFFFF;stop-opacity:0"/>
								<stop  offset="1" style="stop-color:#92A7AC"/>
							</linearGradient>
							<path id="XMLID_24_" class="st17" d="M411.37,242.69c-0.24,7.11-8.1,12.62-17.56,12.31c-9.46-0.32-16.94-6.34-16.7-13.46
								c0.24-7.11,8.1-12.62,17.56-12.31C404.13,229.55,411.61,235.58,411.37,242.69z"/>
							<path id="XMLID_23_" class="st18" d="M422.73,227.35c-0.29,8.67-13.05,15.28-28.49,14.76c-15.44-0.52-27.72-7.97-27.43-16.64
								c0.29-8.67,13.05-15.28,28.49-14.76C410.74,211.23,423.02,218.68,422.73,227.35z"/>
							<linearGradient id="XMLID_16_" gradientUnits="userSpaceOnUse" x1="385.1771" y1="226.4102" x2="417.586" y2="226.4102">
								<stop  offset="3.946110e-03" style="stop-color:#FFFFFF;stop-opacity:0"/>
								<stop  offset="1" style="stop-color:#92A7AC"/>
							</linearGradient>
							<path id="XMLID_22_" class="st19" d="M422.73,227.35c-0.29,8.67-13.05,15.28-28.49,14.76c-15.44-0.52-27.72-7.97-27.43-16.64
								c0.29-8.67,13.05-15.28,28.49-14.76C410.74,211.23,423.02,218.68,422.73,227.35z"/>
							
								<ellipse id="XMLID_21_" transform="matrix(0.0336 -0.9994 0.9994 0.0336 165.2386 604.2803)" class="st20" cx="395.09" cy="216.7" rx="15.71" ry="27.98"/>
							<linearGradient id="XMLID_29_" gradientUnits="userSpaceOnUse" x1="380.0542" y1="216.6955" x2="419.0508" y2="216.6955">
								<stop  offset="3.946110e-03" style="stop-color:#FFFFFF;stop-opacity:0"/>
								<stop  offset="1" style="stop-color:#92A7AC"/>
							</linearGradient>
							<path id="XMLID_20_" class="st21" d="M423.05,217.64c-0.29,8.67-13.05,15.28-28.49,14.76c-15.44-0.52-27.72-7.97-27.43-16.64
								c0.29-8.67,13.05-15.28,28.49-14.76C411.06,201.51,423.34,208.96,423.05,217.64z"/>
							<path id="XMLID_19_" class="st22" d="M371.34,220.27c-0.77,0.38-1.88-0.28-2.48-1.48c-0.6-1.2-0.46-2.49,0.31-2.88
								c0.77-0.38,1.88,0.28,2.48,1.48C372.25,218.6,372.12,219.88,371.34,220.27z"/>
							<path id="XMLID_18_" class="st22" d="M372.85,222.6c-0.51,0.25-1.1,0.1-1.32-0.34c-0.22-0.44,0.01-1.01,0.52-1.26
								c0.51-0.25,1.1-0.1,1.32,0.34C373.6,221.78,373.36,222.34,372.85,222.6z"/>
							<path id="XMLID_17_" class="st22" d="M371.43,230.73c-0.77,0.38-1.88-0.28-2.48-1.48c-0.6-1.2-0.46-2.49,0.31-2.88
								c0.77-0.38,1.88,0.28,2.48,1.48C372.34,229.05,372.21,230.34,371.43,230.73z"/>
							<path id="XMLID_13_" class="st22" d="M372.94,233.06c-0.51,0.25-1.1,0.1-1.32-0.34c-0.22-0.44,0.01-1.01,0.52-1.26
								c0.51-0.25,1.1-0.1,1.32,0.34C373.69,232.24,373.45,232.8,372.94,233.06z"/>
							<path id="XMLID_12_" class="st23" d="M445.62,151.14c0.18-28.19-22.49-46.94-50.59-47.11c-28.1-0.18-51.01,18.28-51.18,46.47
								c-0.17,27.62,13.94,31.8,21.14,46c2.25,4.44,1.43,8.39,1.43,8.39c-0.07,10.73,11.6,16.79,27.87,16.9
								c16.27,0.1,28.01-5.82,28.08-16.54c0,0-0.77-3.96,1.53-8.37C431.28,182.76,445.45,178.76,445.62,151.14z"/>
							<linearGradient id="SVGID_11_" gradientUnits="userSpaceOnUse" x1="382.9484" y1="144.5077" x2="427.078" y2="196.7277">
								<stop  offset="3.946110e-03" style="stop-color:#FFFFFF;stop-opacity:0"/>
								<stop  offset="1" style="stop-color:#FDC870"/>
							</linearGradient>
							<path class="st24" d="M445.62,151.14c-0.01,1.72-0.07,3.35-0.19,4.91c-0.08,1.18-0.21,2.32-0.36,3.42
								c-0.74,5.6-2.19,10.01-4.03,13.72c-0.04,0.07-0.07,0.15-0.11,0.22c-4.67,9.21-11.79,14.08-16.51,22.5
								c-0.19,0.32-0.37,0.64-0.54,0.97c-2.31,4.41-1.53,8.37-1.53,8.37c0,0.42-0.02,0.84-0.07,1.25c-0.01,0.19-0.03,0.38-0.06,0.56
								c0,0.09-0.02,0.19-0.04,0.28c-0.02,0.18-0.05,0.36-0.09,0.53c-0.03,0.18-0.06,0.36-0.12,0.54c-0.05,0.24-0.13,0.49-0.2,0.73
								c0,0.02-0.01,0.04-0.02,0.06c-0.21,0.67-0.47,1.31-0.8,1.93c-0.01,0.04-0.03,0.07-0.05,0.12c-2.77,5.3-9.32,8.71-18.05,9.99
								c-2.66,0.4-5.54,0.59-8.57,0.57c-16.27-0.11-27.94-6.17-27.88-16.9c0,0,0.83-3.94-1.43-8.39c-7.2-14.2-21.32-18.38-21.14-46
								c0.18-28.19,23.08-46.65,51.18-46.47C423.13,104.21,445.8,122.95,445.62,151.14z"/>
							
								<linearGradient id="XMLID_30_" gradientUnits="userSpaceOnUse" x1="425.8992" y1="189.6322" x2="425.8992" y2="215.0969" gradientTransform="matrix(0.9996 -0.0273 0.0273 0.9996 -37.067 -40.0028)">
								<stop  offset="3.946110e-03" style="stop-color:#FFFFFF;stop-opacity:0"/>
								<stop  offset="1" style="stop-color:#FDC870"/>
							</linearGradient>
							<path id="XMLID_1_" class="st25" d="M410.84,175.54c-0.89-5.35-6.91-12.44-11.32-5.47c-3.05,4.82-2.73,11.57-2.73,17.21v0.35
								c-0.5,0.04-1.01,0.06-1.5,0.08c-0.16,0-0.28,0.03-0.4,0.06c-0.12-0.04-0.25-0.06-0.4-0.08c-0.49-0.01-0.98-0.04-1.49-0.09
								v-0.32c0.08-4.88,0.09-9.87-1.38-14.51c-2.31-7.33-9.09-7.01-11.77-0.12c-2.55,6.57-0.17,11.63,4.33,14.63
								c1.77,1.18,3.88,2.04,6.14,2.55c0,0.13-0.01,0.26-0.01,0.37c-0.03,3.63-0.04,7.27-0.06,10.9c-0.03,3.23-0.04,6.47-0.06,9.7
								c-0.01,1.46-0.01,2.91-0.03,4.36c-0.01,2.16-0.03,4.31-0.04,6.45c0.87,0.06,1.76,0.12,2.65,0.14
								c0.01-2.22,0.03-4.44,0.04-6.66c0.01-1.47,0.03-2.94,0.04-4.41c0.01-3.23,0.04-6.48,0.06-9.71
								c0.01-3.57,0.04-7.15,0.06-10.72c0.49,0.05,1,0.09,1.5,0.1c0.14,0,0.27-0.01,0.4-0.05c0.12,0.04,0.25,0.06,0.39,0.05
								c0.5,0,1.01-0.04,1.51-0.08c-0.03,3.58-0.05,7.18-0.06,10.76c-0.03,3.25-0.05,6.48-0.06,9.72c-0.01,1.45-0.03,2.88-0.03,4.33
								c-0.01,0.34-0.01,0.69-0.01,1.02c-0.01,1.87-0.03,3.74-0.04,5.63v0.01c0.01,0,0.01,0,0.03,0s0.01,0,0.03,0
								c0.03,0,0.04,0,0.06-0.01c0.01,0.01,0.03,0,0.04,0h0.18c0.3-0.01,0.58-0.03,0.87-0.04c0.26-0.01,0.5-0.03,0.75-0.04
								c0.25-0.01,0.48-0.04,0.71-0.05c0.01-2.15,0.03-4.31,0.04-6.45c0-0.63,0.01-1.27,0.01-1.9c0-0.75,0.01-1.51,0.01-2.26
								c0.03-3.25,0.04-6.49,0.06-9.74c0.01-3.66,0.04-7.33,0.06-10.99v-0.35C406.48,188.54,412.22,183.87,410.84,175.54z
								 M381.54,177.89c-0.03-2.94,2.97-11.73,6.65-6.56c2.83,4,2.44,10.5,2.22,15.88C385.66,186.22,381.59,183.53,381.54,177.89z
								 M399.4,187.28c-0.16-5.39-0.47-11.9,2.42-15.85c3.75-5.13,6.63,3.7,6.57,6.63C408.25,183.7,404.14,186.34,399.4,187.28z"/>
							
								<linearGradient id="SVGID_12_" gradientUnits="userSpaceOnUse" x1="442.7917" y1="210.3756" x2="403.799" y2="144.8678" gradientTransform="matrix(0.9996 -0.0273 0.0273 0.9996 -37.067 -40.0028)">
								<stop  offset="3.946110e-03" style="stop-color:#FFFFFF;stop-opacity:0"/>
								<stop  offset="1" style="stop-color:#FFFFFF"/>
							</linearGradient>
							<path class="st26" d="M419.23,144.16c-13.7,8.42-36.27,9.03-50.41,1.38c-14.14-7.66-14.5-20.69-0.79-29.1
								c13.7-8.42,36.27-9.03,50.41-1.38C432.58,122.71,432.93,135.74,419.23,144.16z"/>
							<linearGradient id="SVGID_13_" gradientUnits="userSpaceOnUse" x1="367.8124" y1="177.2183" x2="325.6718" y2="156.8106">
								<stop  offset="3.946110e-03" style="stop-color:#FFFFFF;stop-opacity:0"/>
								<stop  offset="1" style="stop-color:#FFFFFF"/>
							</linearGradient>
							<path class="st27" d="M350.9,165.3c2.38,6.9,6.82,13.22,11.52,18.55c4.91,5.57,10.82,11.09,11.83,18.45
								c0.14,1.03,0.19,2.1,0.69,3.01c0.5,0.91,1.64,1.57,2.58,1.14c0.48-0.22,0.81-0.68,1.09-1.13c2.01-3.23,2.71-7.24,1.92-10.96
								c-1.27-5.99-5.9-10.33-9.77-14.76c-3.76-4.3-6.96-9.82-8.17-15.46c-0.75-3.54-0.99-7.18-1.75-10.72
								c-0.36-1.69-0.87-3.39-1.89-4.79c-1.02-1.4-2.65-2.45-4.37-2.39c-1.84,0.06-3.47,1.37-4.35,2.99
								c-0.87,1.62-1.1,3.51-1.14,5.35C349.03,158.24,349.71,161.84,350.9,165.3z"/>
							<linearGradient id="SVGID_14_" gradientUnits="userSpaceOnUse" x1="388.5694" y1="221.5142" x2="424.4784" y2="202.1786">
								<stop  offset="3.946110e-03" style="stop-color:#FFFFFF;stop-opacity:0"/>
								<stop  offset="1" style="stop-color:#FDC870"/>
							</linearGradient>
							<path class="st28" d="M445.62,151.14c0,1.71-0.06,3.34-0.19,4.91c-0.08,1.18-0.21,2.32-0.36,3.42
								c-0.75,5.39-2.2,9.87-4.03,13.72c-0.04,0.07-0.07,0.15-0.11,0.22c-4.67,9.21-11.79,14.08-16.51,22.5
								c-0.19,0.32-0.37,0.64-0.54,0.97c-2.31,4.41-1.53,8.37-1.53,8.37c0,0.42-0.02,0.84-0.07,1.25c-0.01,0.19-0.03,0.38-0.06,0.56
								c0,0.09-0.02,0.19-0.04,0.28c-0.02,0.18-0.05,0.36-0.09,0.53c-0.03,0.18-0.06,0.36-0.12,0.54c-0.05,0.24-0.13,0.49-0.2,0.73
								c0,0.02-0.01,0.04-0.02,0.06c-0.21,0.67-0.47,1.31-0.8,1.93c-0.01,0.04-0.03,0.07-0.05,0.12c1.45,1.99,2.23,4.15,2.15,6.4
								c-0.06,1.69-0.6,3.31-1.53,4.81c0.83,1.56,1.26,3.21,1.2,4.9c-0.17,5.18-4.78,9.62-11.76,12.25c0.29,1,0.44,2.03,0.41,3.09
								c-0.24,7.12-8.1,12.62-17.56,12.31c-0.54-0.02-1.06-0.05-1.59-0.12c2.05-2.47,4.37-4.83,5.55-7.17
								c4.09-8.11,4.6-17.57,5.09-26.49c0.01-0.17,0.02-0.34,0.03-0.5c0.41-7.52,0.82-15.02,1.23-22.53
								c0.04-0.75,0.09-1.51,0.38-2.2c0.88-2.05,3.49-2.52,5.67-3.03C433.92,187.38,443.59,169.74,445.62,151.14z"/>
							<path class="st23" d="M443.51,97.09c0,2.51-2.04,4.55-4.55,4.55c-2.51,0-4.55-2.04-4.55-4.55c0-2.51,2.04-4.55,4.55-4.55
								C441.47,92.55,443.51,94.58,443.51,97.09z"/>
							<path class="st23" d="M443.51,222.72c0,2.51-2.04,4.55-4.55,4.55c-2.51,0-4.55-2.04-4.55-4.55c0-2.51,2.04-4.55,4.55-4.55
								C441.47,218.17,443.51,220.21,443.51,222.72z"/>
							<circle class="st23" cx="356.62" cy="203.07" r="4.55"/>
							<circle class="st23" cx="448.49" cy="83.66" r="2.87"/>
							<circle class="st23" cx="443.51" cy="197.02" r="2.87"/>
							<circle class="st23" cx="364.03" cy="81.98" r="2.87"/>
							<circle class="st23" cx="451.36" cy="232.43" r="2.87"/>
							<circle class="st23" cx="349.1" cy="247.14" r="2.87"/>
						</g>
						<g>
							<linearGradient id="SVGID_15_" gradientUnits="userSpaceOnUse" x1="284.0507" y1="187.9166" x2="405.0081" y2="187.9166">
								<stop  offset="1.694780e-03" style="stop-color:#00D4C8"/>
								<stop  offset="1" style="stop-color:#00D2C7;stop-opacity:0"/>
							</linearGradient>
							<path class="st29" d="M462.96,254.46V81.98c0,10.08-6.66,20.16-19.98,27.85c-26.64,15.38-69.84,15.38-96.48,0
								c-13.32-7.69-19.98-17.77-19.98-27.85v172.48l0,0c0,10.08,6.66,20.16,19.98,27.85c26.64,15.38,69.84,15.38,96.48,0
								C456.3,274.62,462.96,264.54,462.96,254.46z"/>
							<linearGradient id="SVGID_16_" gradientUnits="userSpaceOnUse" x1="490.8711" y1="187.9166" x2="405.9677" y2="187.9166">
								<stop  offset="1.694780e-03" style="stop-color:#00D4C8"/>
								<stop  offset="1" style="stop-color:#00D2C7;stop-opacity:0"/>
							</linearGradient>
							<path class="st30" d="M462.96,254.46V81.98c0,10.08-6.66,20.16-19.98,27.85c-26.64,15.38-69.84,15.38-96.48,0
								c-13.32-7.69-19.98-17.77-19.98-27.85v172.48l0,0c0,10.08,6.66,20.16,19.98,27.85c26.64,15.38,69.84,15.38,96.48,0
								C456.3,274.62,462.96,264.54,462.96,254.46z"/>
							<linearGradient id="SVGID_17_" gradientUnits="userSpaceOnUse" x1="394.7346" y1="18.7043" x2="394.7346" y2="153.7667">
								<stop  offset="1.694780e-03" style="stop-color:#00D4C8"/>
								<stop  offset="1" style="stop-color:#00D2C7;stop-opacity:0"/>
							</linearGradient>
							<ellipse class="st31" cx="394.73" cy="81.98" rx="68.22" ry="39.39"/>
						</g>
					</g>
					<path class="st2" d="M336.73,192.09L336.73,192.09c-2.88-1.66-4.65-4.73-4.65-8.05v-62.72c0-1.38,1.49-2.24,2.69-1.55l0,0
						c2.95,1.7,4.77,4.85,4.77,8.26v62.45C339.54,191.91,337.98,192.81,336.73,192.09z"/>
					<path class="st2" d="M336.73,220.31L336.73,220.31c-2.88-1.66-4.65-4.73-4.65-8.05v-8.91c0-1.38,1.49-2.24,2.69-1.55l0,0
						c2.95,1.7,4.77,4.85,4.77,8.26v8.63C339.54,220.13,337.98,221.03,336.73,220.31z"/>
				</g>
				<g>
					<path class="st13" d="M568.58,375.11v-41.27h-92.26v41.27l0,0c0,6.82,4.5,13.63,13.51,18.83c18.01,10.4,47.22,10.4,65.24,0
						C564.08,388.74,568.58,381.93,568.58,375.11z"/>
					<linearGradient id="SVGID_18_" gradientUnits="userSpaceOnUse" x1="515.5708" y1="367.7903" x2="584.9231" y2="367.7903">
						<stop  offset="0" style="stop-color:#FFFFFF;stop-opacity:0"/>
						<stop  offset="1" style="stop-color:#662D8D"/>
					</linearGradient>
					<path class="st32" d="M568.58,375.11v-41.27h-92.26v41.27l0,0c0,6.82,4.5,13.63,13.51,18.83c18.01,10.4,47.22,10.4,65.24,0
						C564.08,388.74,568.58,381.93,568.58,375.11z"/>
					<ellipse class="st2" cx="522.45" cy="333.84" rx="46.13" ry="26.63"/>
					<g>
						<linearGradient id="SVGID_19_" gradientUnits="userSpaceOnUse" x1="522.4525" y1="285.8818" x2="522.4525" y2="377.2028">
							<stop  offset="1.694780e-03" style="stop-color:#00D4C8"/>
							<stop  offset="1" style="stop-color:#00D2C7;stop-opacity:0"/>
						</linearGradient>
						<ellipse class="st33" cx="522.45" cy="328.67" rx="46.13" ry="26.63"/>
						<g>
							<path class="st23" d="M555.56,254.46c0,1.7-1.38,3.07-3.07,3.07s-3.07-1.38-3.07-3.07s1.38-3.07,3.07-3.07
								S555.56,252.76,555.56,254.46z"/>
							<circle class="st23" cx="549.41" cy="320.64" r="3.07"/>
							<path class="st23" d="M499.75,297c0,1.7-1.38,3.07-3.07,3.07s-3.07-1.38-3.07-3.07c0-1.7,1.38-3.07,3.07-3.07
								S499.75,295.3,499.75,297z"/>
							<path class="st23" d="M548.28,241.46c0,1.07-0.87,1.94-1.94,1.94c-1.07,0-1.94-0.87-1.94-1.94c0-1.07,0.87-1.94,1.94-1.94
								C547.41,239.52,548.28,240.39,548.28,241.46z"/>
							<path class="st23" d="M539.63,328.67c0,1.07-0.87,1.94-1.94,1.94s-1.94-0.87-1.94-1.94c0-1.07,0.87-1.94,1.94-1.94
								S539.63,327.6,539.63,328.67z"/>
							<path class="st23" d="M498.27,238.68c0,1.07-0.87,1.94-1.94,1.94c-1.07,0-1.94-0.87-1.94-1.94s0.87-1.94,1.94-1.94
								C497.41,236.74,498.27,237.61,498.27,238.68z"/>
							<path class="st23" d="M562.68,295.61c0,1.07-0.87,1.94-1.94,1.94s-1.94-0.87-1.94-1.94c0-1.07,0.87-1.94,1.94-1.94
								S562.68,294.54,562.68,295.61z"/>
							<path class="st23" d="M493.54,323.72c0,1.07-0.87,1.94-1.94,1.94c-1.07,0-1.94-0.87-1.94-1.94c0-1.07,0.87-1.94,1.94-1.94
								C492.67,321.78,493.54,322.64,493.54,323.72z"/>
							<g>
								<path class="st34" d="M551.39,288.17c0,0.14,0,0.3-0.02,0.45c-0.02,1.82-0.18,3.51-0.48,5.06
									c-0.18,0.94-0.41,1.83-0.69,2.67c-1.18,3.58-3.19,6.27-5.81,7.93l0.02,0.02l-0.23,0.14c-0.14,0.07-0.28,0.16-0.45,0.25
									l-7.13,4.13l-1.6-2.76c-2.78-0.39-5.79-1.43-8.96-3.26c-14-8.07-25.33-27.74-25.33-43.89c0-1.64,0.12-3.17,0.36-4.6
									c0.14-0.91,0.34-1.78,0.55-2.6c0.2-0.68,0.41-1.32,0.64-1.94l-1.67-2.89l7.2-4.15c0.25-0.14,0.48-0.28,0.73-0.41l0.39-0.23
									l0.02,0.04c2.92-1.41,6.48-1.69,10.44-0.66c0.82,0.21,1.67,0.48,2.53,0.82c1.35,0.52,2.74,1.18,4.15,2
									c0.11,0.05,0.21,0.12,0.32,0.2c0.62,0.36,1.25,0.77,1.87,1.19c1.21,0.8,2.42,1.71,3.58,2.71c0.52,0.45,1.05,0.89,1.55,1.37
									c1.03,0.94,2.03,1.96,3.01,3.03c0.45,0.48,0.89,1,1.32,1.51c0.91,1.05,1.76,2.14,2.6,3.26c0.37,0.53,0.77,1.07,1.12,1.62
									c0.78,1.12,1.53,2.3,2.23,3.49c0.34,0.57,0.68,1.14,0.98,1.71c0.68,1.21,1.3,2.44,1.87,3.69c0.29,0.61,0.55,1.19,0.8,1.8
									c0.55,1.3,1.05,2.6,1.5,3.9c0.23,0.64,0.43,1.28,0.62,1.92c0.43,1.39,0.78,2.78,1.05,4.15c0.16,0.68,0.29,1.37,0.39,2.05
									c0.25,1.51,0.41,3.01,0.48,4.49C551.37,286.98,551.39,287.58,551.39,288.17z"/>
								<g>
									<path class="st35" d="M521.89,242.28l-20.82,12.02l-1.69,0.98l-0.52-1.98l2.76-1.6l17.74-10.24
										C520.18,241.68,521.04,241.94,521.89,242.28z"/>
									<path class="st35" d="M528.23,245.67l-25.24,14.57l-0.52-1.98l23.89-13.79C526.99,244.83,527.61,245.24,528.23,245.67z"/>
									<path class="st35" d="M533.36,249.75l-26.76,15.44l-0.5-1.98l25.71-14.84C532.33,248.82,532.86,249.27,533.36,249.75z"/>
									<path class="st35" d="M537.69,254.29l-27.45,15.84l-0.52-1.98l26.65-15.37C536.82,253.26,537.26,253.77,537.69,254.29z"/>
									<path class="st35" d="M541.41,259.17l-27.56,15.91l-0.5-1.98l26.93-15.55C540.67,258.08,541.06,258.62,541.41,259.17z"/>
									<path class="st35" d="M544.62,264.37l-27.13,15.66l-0.52-1.98l26.67-15.39C543.98,263.23,544.32,263.8,544.62,264.37z"/>
									<path class="st35" d="M547.29,269.86l-26.19,15.12l-0.52-1.98l25.9-14.95C546.78,268.66,547.04,269.25,547.29,269.86z"/>
									<path class="st35" d="M549.41,275.68l-24.69,14.25l-0.5-1.98l24.57-14.2C549.02,274.4,549.22,275.04,549.41,275.68z"/>
									<path class="st35" d="M550.86,281.88l-22.5,13l-0.52-1.98l22.62-13.08C550.62,280.51,550.75,281.21,550.86,281.88z"/>
									<path class="st35" d="M551.39,288.17c0,0.14,0,0.3-0.02,0.45l-19.4,11.2l-0.52-1.98l19.88-11.47
										C551.37,286.98,551.39,287.58,551.39,288.17z"/>
									<path class="st35" d="M550.89,293.68c-0.18,0.94-0.41,1.83-0.69,2.67l-14.61,8.43l-0.5-1.98L550.89,293.68z"/>
								</g>
								
									<ellipse transform="matrix(0.866 -0.5 0.5 0.866 -69.33 296.6348)" class="st36" cx="518.86" cy="277.69" rx="20.69" ry="35.84"/>
								<path class="st34" d="M523.49,257.5c-0.88,0.01-1.77,0.01-2.65,0c0.96,0.81,1.9,1.69,2.79,2.64l1.58-0.92
									C524.65,258.63,524.07,258.04,523.49,257.5z M501.06,254.31c-0.01,0.05-0.01,0.12-0.03,0.17c0.19,0.05,0.37,0.1,0.56,0.16
									c0.21-0.38,0.45-0.71,0.7-1.03L501.06,254.31z M523.49,257.5c-0.88,0.01-1.77,0.01-2.65,0c0.96,0.81,1.9,1.69,2.79,2.64
									l1.58-0.92C524.65,258.63,524.07,258.04,523.49,257.5z M501.04,254.48c0.19,0.05,0.37,0.1,0.56,0.16
									c0.21-0.38,0.45-0.71,0.7-1.03l-1.23,0.71C501.05,254.36,501.05,254.42,501.04,254.48z M539.49,288.45
									c-0.08-0.7-0.18-1.4-0.3-2.09c-0.25-1.4-0.57-2.79-0.97-4.22c-0.18-0.65-0.37-1.29-0.58-1.94
									c-0.43-1.31-0.92-2.63-1.46-3.92c-0.25-0.61-0.52-1.23-0.79-1.82c-0.57-1.25-1.19-2.5-1.85-3.7
									c-0.32-0.58-0.65-1.15-0.98-1.71c-0.7-1.19-1.45-2.35-2.24-3.48c-0.36-0.54-0.75-1.07-1.15-1.6
									c-0.83-1.14-1.71-2.22-2.61-3.26c-0.45-0.52-0.91-1.01-1.36-1.49c-0.56-0.6-1.14-1.18-1.72-1.72
									c-0.45-0.44-0.92-0.85-1.38-1.25c-0.53-0.48-1.06-0.92-1.6-1.34c-1.24-0.97-2.51-1.84-3.79-2.57
									c-0.03-0.03-0.05-0.04-0.08-0.05c-0.67-0.39-1.33-0.74-1.99-1.03c-1.86-0.88-3.67-1.46-5.35-1.68
									c-0.59-0.1-1.18-0.14-1.75-0.14c-0.91,0-1.72,0.1-2.47,0.3c-1.38,0.36-2.51,1.02-3.41,1.87l-0.22,0.22l-0.01,0.01
									c-0.65,0.66-1.18,1.42-1.6,2.25c-0.18,0.34-0.34,0.7-0.49,1.05v0.01c-1.15,2.81-1.36,5.97-1.36,7.93
									c0,13.85,9.7,31.24,21.53,39.03c0.52,0.36,1.05,0.69,1.58,1c3.25,1.87,6.39,2.87,9.09,2.87c0.96,0,1.84-0.12,2.61-0.34
									c1.03-0.28,1.93-0.75,2.68-1.34c0.39-0.28,0.74-0.61,1.05-0.97c0.59-0.65,1.07-1.38,1.47-2.17v-0.01
									c0.91-1.81,1.36-3.85,1.58-5.68c0.1-0.85,0.16-1.67,0.17-2.37c0.01-0.27,0.01-0.53,0.01-0.76
									C539.74,291.05,539.66,289.75,539.49,288.45z M537.58,296.58c-0.45,2.37-1.4,4.89-3.36,6.35c-1.03,0.76-2.37,1.24-4.05,1.24
									c-0.58,0-1.18-0.05-1.81-0.16h-0.01c-1.69-0.28-3.52-0.96-5.44-1.98h-0.03c-0.3-0.16-0.61-0.31-0.91-0.49
									c-12.05-6.96-22.23-24.58-22.23-38.48c0-1.68,0.17-4.41,1.09-6.83c0.21-0.56,0.47-1.1,0.76-1.6
									c0.21-0.38,0.45-0.71,0.7-1.03l0.01-0.01c0.94-1.15,2.22-2,3.97-2.29h0.01c0.39-0.05,0.8-0.09,1.25-0.09
									c1.56,0,3.32,0.39,5.19,1.14c0.71,0.28,1.44,0.63,2.17,1.02c0.28,0.14,0.56,0.3,0.84,0.47c1.05,0.61,2.07,1.28,3.08,2.04
									c0.56,0.41,1.11,0.85,1.66,1.32c0.13,0.09,0.23,0.18,0.35,0.31h0.01c0.96,0.81,1.9,1.69,2.79,2.64
									c0.48,0.48,0.93,0.97,1.37,1.47c0.92,1.02,1.8,2.11,2.65,3.23c0.39,0.52,0.78,1.06,1.15,1.6c0.79,1.12,1.54,2.29,2.24,3.48
									c0.34,0.56,0.67,1.12,0.98,1.71c0.66,1.22,1.28,2.46,1.84,3.71c0.28,0.59,0.54,1.2,0.79,1.81c0.54,1.31,1.02,2.63,1.42,3.94
									v0.01c0.22,0.66,0.4,1.29,0.58,1.94c0.37,1.42,0.69,2.84,0.89,4.24c0.12,0.71,0.21,1.42,0.27,2.12
									c0.09,0.98,0.14,1.95,0.14,2.9c0,0.52-0.01,1.14-0.06,1.82C537.84,294.9,537.74,295.73,537.58,296.58z M501.06,254.31
									c-0.01,0.05-0.01,0.12-0.03,0.17c0.19,0.05,0.37,0.1,0.56,0.16c0.21-0.38,0.45-0.71,0.7-1.03L501.06,254.31z M523.49,257.5
									c-0.88,0.01-1.77,0.01-2.65,0c0.96,0.81,1.9,1.69,2.79,2.64l1.58-0.92C524.65,258.63,524.07,258.04,523.49,257.5z"/>
								<g>
									<path class="st34" d="M525.92,282.2c-0.26-0.61-0.57-1.19-0.92-1.75c-0.74-1.18-1.67-2.25-2.69-3.21
										c-0.52-0.48-1.05-0.94-1.59-1.36c-0.4-0.32-0.8-0.62-1.2-0.91c-0.97-0.67-1.76-1.24-2.28-1.86
										c-0.41-0.49-0.65-1.01-0.65-1.63c0-0.1,0.01-0.21,0.04-0.28c0.09-0.35,0.37-0.48,0.76-0.44c0.43,0.03,1.01,0.26,1.59,0.59
										c0.21,0.12,0.41,0.25,0.62,0.39c1.16,0.74,2.22,1.67,3.18,2.95c0.12,0.14,0.22,0.28,0.32,0.44l1.95-1.76l0.03-0.03h0.01
										l0.48-0.43c-0.81-1.2-1.66-2.24-2.56-3.14c-0.49-0.49-1.01-0.94-1.54-1.37c-0.16-0.13-0.32-0.26-0.48-0.37v-2.59
										l-1.33-0.76l-1.98-1.14l-0.93-0.54v2.65c-0.69-0.25-1.34-0.4-1.94-0.45h-0.01c-1.4-0.1-2.48,0.39-2.95,1.71
										c-0.17,0.47-0.26,1.02-0.26,1.69c0,0.25,0.01,0.48,0.03,0.71c0.14,2.26,0.97,4.09,2.2,5.66l0.01,0.01
										c0.01,0.03,0.03,0.05,0.04,0.06c0.87,1.1,1.93,2.08,3.09,2.99c0.56,0.44,1.15,0.87,1.75,1.27
										c0.03,0.03,0.04,0.04,0.06,0.05c1.62,1.1,2.59,2.13,2.84,3.04c0.08,0.18,0.1,0.35,0.1,0.52c0,0.63-0.35,0.92-0.93,0.88
										c-0.48-0.01-1.1-0.25-1.84-0.67c-1.49-0.85-3.43-2.33-5.17-5.28l-2.74,2.04c1.84,3.34,3.59,5.25,5.72,6.76v2.74l4.24,2.44
										v-2.82c1.36,0.52,2.63,0.7,3.61,0.43c1.11-0.31,1.86-1.22,2.02-2.88v-0.01c0.03-0.22,0.04-0.45,0.04-0.7
										C526.67,284.57,526.4,283.34,525.92,282.2z"/>
								</g>
							</g>
						</g>
						<g>
							<linearGradient id="SVGID_20_" gradientUnits="userSpaceOnUse" x1="447.6147" y1="293.088" x2="529.3987" y2="293.088">
								<stop  offset="1.694780e-03" style="stop-color:#00D4C8"/>
								<stop  offset="1" style="stop-color:#00D2C7;stop-opacity:0"/>
							</linearGradient>
							<path class="st37" d="M568.58,328.67v-97.79c0,6.82-4.5,13.63-13.51,18.83c-18.01,10.4-47.22,10.4-65.24,0
								c-9.01-5.2-13.51-12.02-13.51-18.83v97.79l0,0c0,6.82,4.5,13.63,13.51,18.83c18.01,10.4,47.22,10.4,65.24,0
								C564.08,342.3,568.58,335.48,568.58,328.67z"/>
							<linearGradient id="SVGID_21_" gradientUnits="userSpaceOnUse" x1="587.454" y1="293.088" x2="530.0475" y2="293.088">
								<stop  offset="1.694780e-03" style="stop-color:#00D4C8"/>
								<stop  offset="1" style="stop-color:#00D2C7;stop-opacity:0"/>
							</linearGradient>
							<path class="st38" d="M568.58,328.67v-97.79c0,6.82-4.5,13.63-13.51,18.83c-18.01,10.4-47.22,10.4-65.24,0
								c-9.01-5.2-13.51-12.02-13.51-18.83v97.79l0,0c0,6.82,4.5,13.63,13.51,18.83c18.01,10.4,47.22,10.4,65.24,0
								C564.08,342.3,568.58,335.48,568.58,328.67z"/>
							<linearGradient id="SVGID_22_" gradientUnits="userSpaceOnUse" x1="522.4525" y1="188.0903" x2="522.4525" y2="279.4113">
								<stop  offset="1.694780e-03" style="stop-color:#00D4C8"/>
								<stop  offset="1" style="stop-color:#00D2C7;stop-opacity:0"/>
							</linearGradient>
							<ellipse class="st39" cx="522.45" cy="230.88" rx="46.13" ry="26.63"/>
						</g>
					</g>
					<path class="st2" d="M483.23,286.5L483.23,286.5c-1.95-1.12-3.14-3.2-3.14-5.45V252.8c0-0.93,1.01-1.52,1.82-1.05l0,0
						c2,1.15,3.23,3.28,3.23,5.59v28.07C485.13,286.38,484.08,286.98,483.23,286.5z"/>
					<path class="st2" d="M483.23,305.58L483.23,305.58c-1.95-1.12-3.14-3.2-3.14-5.45v-6.02c0-0.93,1.01-1.52,1.82-1.05l0,0
						c2,1.15,3.23,3.28,3.23,5.59v5.84C485.13,305.46,484.08,306.06,483.23,305.58z"/>
				</g>
				<g>
					<path class="st13" d="M313.01,246.14v-41.27h-92.26v41.27l0,0c0,6.82,4.5,13.63,13.51,18.83c18.01,10.4,47.22,10.4,65.24,0
						C308.51,259.77,313.02,252.96,313.01,246.14z"/>
					<linearGradient id="SVGID_23_" gradientUnits="userSpaceOnUse" x1="260.0047" y1="238.8226" x2="329.3569" y2="238.8226">
						<stop  offset="0" style="stop-color:#FFFFFF;stop-opacity:0"/>
						<stop  offset="1" style="stop-color:#662D8D"/>
					</linearGradient>
					<path class="st40" d="M313.01,246.14v-41.27h-92.26v41.27l0,0c0,6.82,4.5,13.63,13.51,18.83c18.01,10.4,47.22,10.4,65.24,0
						C308.51,259.77,313.02,252.96,313.01,246.14z"/>
					<ellipse class="st2" cx="266.89" cy="204.87" rx="46.13" ry="26.63"/>
					<g>
						<linearGradient id="SVGID_24_" gradientUnits="userSpaceOnUse" x1="266.8863" y1="156.9141" x2="266.8863" y2="248.2351">
							<stop  offset="1.694780e-03" style="stop-color:#00D4C8"/>
							<stop  offset="1" style="stop-color:#00D2C7;stop-opacity:0"/>
						</linearGradient>
						<ellipse class="st41" cx="266.89" cy="199.7" rx="46.13" ry="26.63"/>
						<g>
							<circle class="st42" cx="296.92" cy="125.49" r="3.07"/>
							<circle class="st42" cx="293.85" cy="191.67" r="3.07"/>
							<path class="st42" d="M244.19,168.03c0,1.7-1.38,3.07-3.07,3.07s-3.07-1.38-3.07-3.07c0-1.7,1.38-3.07,3.07-3.07
								S244.19,166.33,244.19,168.03z"/>
							<path class="st42" d="M292.71,112.5c0,1.07-0.87,1.94-1.94,1.94c-1.07,0-1.94-0.87-1.94-1.94s0.87-1.94,1.94-1.94
								C291.84,110.56,292.71,111.42,292.71,112.5z"/>
							<path class="st42" d="M284.06,199.7c0,1.07-0.87,1.94-1.94,1.94c-1.07,0-1.94-0.87-1.94-1.94s0.87-1.94,1.94-1.94
								C283.2,197.76,284.06,198.63,284.06,199.7z"/>
							<path class="st42" d="M242.71,109.71c0,1.07-0.87,1.94-1.94,1.94s-1.94-0.87-1.94-1.94s0.87-1.94,1.94-1.94
								S242.71,108.64,242.71,109.71z"/>
							<path class="st42" d="M307.11,166.65c0,1.07-0.87,1.94-1.94,1.94c-1.07,0-1.94-0.87-1.94-1.94s0.87-1.94,1.94-1.94
								C306.24,164.71,307.11,165.57,307.11,166.65z"/>
							<path class="st42" d="M237.97,194.75c0,1.07-0.87,1.94-1.94,1.94s-1.94-0.87-1.94-1.94s0.87-1.94,1.94-1.94
								S237.97,193.68,237.97,194.75z"/>
							<g>
								<path class="st42" d="M295.82,159.2c0,0.14,0,0.3-0.02,0.45c-0.02,1.82-0.18,3.51-0.48,5.06c-0.18,0.94-0.41,1.83-0.69,2.67
									c-1.18,3.58-3.19,6.27-5.81,7.93l0.02,0.02l-0.23,0.14c-0.14,0.07-0.28,0.16-0.45,0.25l-7.13,4.13l-1.6-2.76
									c-2.78-0.39-5.79-1.43-8.96-3.26c-14-8.07-25.33-27.74-25.33-43.89c0-1.64,0.12-3.17,0.36-4.6c0.14-0.91,0.34-1.78,0.55-2.6
									c0.2-0.68,0.41-1.32,0.64-1.94l-1.67-2.89l7.2-4.15c0.25-0.14,0.48-0.28,0.73-0.41l0.39-0.23l0.02,0.04
									c2.92-1.41,6.48-1.69,10.44-0.66c0.82,0.21,1.67,0.48,2.53,0.82c1.35,0.52,2.74,1.18,4.15,2c0.11,0.05,0.21,0.12,0.32,0.2
									c0.62,0.36,1.25,0.77,1.87,1.19c1.21,0.8,2.42,1.71,3.58,2.71c0.52,0.45,1.05,0.89,1.55,1.37c1.03,0.94,2.03,1.96,3.01,3.03
									c0.45,0.48,0.89,1,1.32,1.51c0.91,1.05,1.76,2.14,2.6,3.26c0.37,0.53,0.77,1.07,1.12,1.62c0.78,1.12,1.53,2.3,2.23,3.49
									c0.34,0.57,0.68,1.14,0.98,1.71c0.68,1.21,1.3,2.44,1.87,3.69c0.29,0.61,0.55,1.19,0.8,1.8c0.55,1.3,1.05,2.6,1.5,3.9
									c0.23,0.64,0.43,1.28,0.62,1.92c0.43,1.39,0.78,2.78,1.05,4.15c0.16,0.68,0.29,1.37,0.39,2.05
									c0.25,1.51,0.41,3.01,0.48,4.49C295.81,158.01,295.82,158.61,295.82,159.2z"/>
								<linearGradient id="SVGID_25_" gradientUnits="userSpaceOnUse" x1="263.7071" y1="131.5306" x2="290.7275" y2="183.5513">
									<stop  offset="0" style="stop-color:#FFFFFF;stop-opacity:0"/>
									<stop  offset="1" style="stop-color:#662D8D"/>
								</linearGradient>
								<path class="st43" d="M295.82,159.2c0,0.14,0,0.3-0.02,0.45c-0.02,1.82-0.18,3.51-0.48,5.06c-0.18,0.94-0.41,1.83-0.69,2.67
									c-1.18,3.58-3.19,6.27-5.81,7.93l0.02,0.02l-0.23,0.14c-0.14,0.07-0.28,0.16-0.45,0.25l-7.13,4.13l-1.6-2.76
									c-2.78-0.39-5.79-1.43-8.96-3.26c-14-8.07-25.33-27.74-25.33-43.89c0-1.64,0.12-3.17,0.36-4.6c0.14-0.91,0.34-1.78,0.55-2.6
									c0.2-0.68,0.41-1.32,0.64-1.94l-1.67-2.89l7.2-4.15c0.25-0.14,0.48-0.28,0.73-0.41l0.39-0.23l0.02,0.04
									c2.92-1.41,6.48-1.69,10.44-0.66c0.82,0.21,1.67,0.48,2.53,0.82c1.35,0.52,2.74,1.18,4.15,2c0.11,0.05,0.21,0.12,0.32,0.2
									c0.62,0.36,1.25,0.77,1.87,1.19c1.21,0.8,2.42,1.71,3.58,2.71c0.52,0.45,1.05,0.89,1.55,1.37c1.03,0.94,2.03,1.96,3.01,3.03
									c0.45,0.48,0.89,1,1.32,1.51c0.91,1.05,1.76,2.14,2.6,3.26c0.37,0.53,0.77,1.07,1.12,1.62c0.78,1.12,1.53,2.3,2.23,3.49
									c0.34,0.57,0.68,1.14,0.98,1.71c0.68,1.21,1.3,2.44,1.87,3.69c0.29,0.61,0.55,1.19,0.8,1.8c0.55,1.3,1.05,2.6,1.5,3.9
									c0.23,0.64,0.43,1.28,0.62,1.92c0.43,1.39,0.78,2.78,1.05,4.15c0.16,0.68,0.29,1.37,0.39,2.05
									c0.25,1.51,0.41,3.01,0.48,4.49C295.81,158.01,295.82,158.61,295.82,159.2z"/>
								
									<ellipse transform="matrix(0.866 -0.5 0.5 0.866 -39.0856 151.5713)" class="st44" cx="263.29" cy="148.72" rx="20.69" ry="35.84"/>
								
									<ellipse transform="matrix(0.866 -0.5 0.5 0.866 -39.0856 151.5717)" class="st95" cx="263.29" cy="148.72" rx="16.32" ry="28.26"/>
								
									<ellipse transform="matrix(0.866 -0.5 0.5 0.866 -39.0856 151.5714)" class="st95" cx="263.29" cy="148.72" rx="11.38" ry="19.71"/>
								<path class="st95" d="M271.53,153.48c0,5.26-3.69,7.39-8.25,4.76c-4.55-2.63-8.25-9.02-8.25-14.28s3.69-7.39,8.25-4.76
									C267.84,141.83,271.53,148.22,271.53,153.48z"/>
								<path class="st2" d="M266.53,150.59c0,2.07-1.45,2.91-3.24,1.87c-1.79-1.03-3.24-3.55-3.24-5.62s1.45-2.91,3.24-1.87
									C265.08,146.01,266.53,148.52,266.53,150.59z"/>
							</g>
						</g>
						<g>
							<linearGradient id="SVGID_26_" gradientUnits="userSpaceOnUse" x1="192.0487" y1="164.1203" x2="273.8326" y2="164.1203">
								<stop  offset="1.694780e-03" style="stop-color:#00D4C8"/>
								<stop  offset="1" style="stop-color:#00D2C7;stop-opacity:0"/>
							</linearGradient>
							<path class="st46" d="M313.01,199.7v-97.79c0,6.82-4.5,13.63-13.51,18.83c-18.01,10.4-47.22,10.4-65.24,0
								c-9.01-5.2-13.51-12.02-13.51-18.83v97.79l0,0c0,6.82,4.5,13.63,13.51,18.83c18.01,10.4,47.22,10.4,65.24,0
								C308.51,213.33,313.02,206.51,313.01,199.7z"/>
							<linearGradient id="SVGID_27_" gradientUnits="userSpaceOnUse" x1="331.8878" y1="164.1203" x2="274.4814" y2="164.1203">
								<stop  offset="1.694780e-03" style="stop-color:#00D4C8"/>
								<stop  offset="1" style="stop-color:#00D2C7;stop-opacity:0"/>
							</linearGradient>
							<path class="st47" d="M313.01,199.7v-97.79c0,6.82-4.5,13.63-13.51,18.83c-18.01,10.4-47.22,10.4-65.24,0
								c-9.01-5.2-13.51-12.02-13.51-18.83v97.79l0,0c0,6.82,4.5,13.63,13.51,18.83c18.01,10.4,47.22,10.4,65.24,0
								C308.51,213.33,313.02,206.51,313.01,199.7z"/>
							<linearGradient id="SVGID_28_" gradientUnits="userSpaceOnUse" x1="266.8863" y1="59.1226" x2="266.8863" y2="150.4436">
								<stop  offset="1.694780e-03" style="stop-color:#00D4C8"/>
								<stop  offset="1" style="stop-color:#00D2C7;stop-opacity:0"/>
							</linearGradient>
							<ellipse class="st48" cx="266.89" cy="101.91" rx="46.13" ry="26.63"/>
						</g>
					</g>
					<path class="st2" d="M227.67,157.53L227.67,157.53c-1.95-1.12-3.14-3.2-3.14-5.45v-28.25c0-0.93,1.01-1.52,1.82-1.05l0,0
						c2,1.15,3.23,3.28,3.23,5.59v28.07C229.56,157.41,228.51,158.02,227.67,157.53z"/>
					<path class="st2" d="M227.67,176.61L227.67,176.61c-1.95-1.12-3.14-3.2-3.14-5.45v-6.02c0-0.93,1.01-1.52,1.82-1.05l0,0
						c2,1.15,3.23,3.28,3.23,5.59v5.84C229.56,176.49,228.51,177.1,227.67,176.61z"/>
				</g>
				<g>
					<path class="st49" d="M407.6,316.45c0,0-7.61,8.1-8.11,16.15l1.48,3.17l3.07-2.24c0,0,2.18-10.58,6.13-13.74L407.6,316.45z"/>
					<path class="st50" d="M425.47,411.33c0,0,0.53,5.01-1.93,4.75c-2.86-0.3-11.7-6.26-9.73-8.14c1.97-1.88,9.35,1.52,9.35,1.52
						L425.47,411.33z"/>
					<path class="st50" d="M409.74,418.75c0,0,0.53,5.01-1.93,4.75c-2.86-0.3-11.7-6.26-9.73-8.14c1.97-1.88,9.35,1.52,9.35,1.52
						L409.74,418.75z"/>
					<rect x="411.98" y="293.83" class="st51" width="5.25" height="7.41"/>
					<path class="st49" d="M406.39,333.8c0,0-8.45,19.28-2.1,85.43c0.03,0.34,0.22,0.65,0.52,0.82c1.11,0.64,3.91,1.77,5.36-1.97
						c0.04-0.1,0.06-0.21,0.07-0.31l5.5-69.29c0.04-1.12,0.63-1.17,0.74-0.06l3.38,63.36c0.02,0.48,0.33,0.89,0.78,1.06
						c1.48,0.56,4.72,1.2,5.32-3.46c0,0,5.74-68.53-0.96-77.83L406.39,333.8z"/>
					<path class="st50" d="M425,329.43c-0.15,0.28-0.33,0.55-0.56,0.79c-1.92,1.97-7.1,5.52-17.42,1.82
						c-0.23-0.08-0.44-0.21-0.62-0.37v2.12c0.18,0.16,0.39,0.29,0.62,0.37c10.32,3.69,15.5,0.14,17.42-1.82
						c0.23-0.23,0.41-0.5,0.56-0.79V329.43z"/>
					<path class="st2" d="M445.98,266.58c0,0,0-4.49,0.61-4.58c0.43-0.07,0.41,1.42,0.41,1.42s0.5-3.33,1.23-3.15
						c0.26,0.07-0.07,2.11-0.07,2.11s0.31-1.17,2.18,0c0.58,0.36,0.44,1.46-1.77,4.94L445.98,266.58z"/>
					<path class="st52" d="M423.89,296.66c0,0,15.71-1.36,21.92-30.44c0,0,1.67-0.31,3.01,1.06c0,0-0.92,34.97-22.67,41.68
						L423.89,296.66z"/>
					<path class="st53" d="M411.98,298.73l5.25-1.19l8.28-1.08c2.03-0.27,3.49,2.67,3.63,5.81c0.28,5.97-3.73,26.28-3.73,26.28
						c-0.05,0.82-0.39,1.6-0.96,2.19c-1.91,1.96-7.09,5.54-17.44,1.84c-0.66-0.23-1.13-0.81-1.23-1.5l-3.85-24.02
						c-0.2-1.25,0.33-2.51,1.37-3.24L411.98,298.73z"/>
					<path class="st2" d="M405.45,284.5c0,0,0.64,7.17,3.6,10.85c2.96,3.67,8.71-2.39,9.56-4.16c0.86-1.77,2.24-12.86-6.67-12.86
						C406.17,278.34,405.16,281.93,405.45,284.5z"/>
					<path class="st49" d="M414.03,288.97c0,0-2.99-2.12-4.1-5.73c0,0-0.66-0.39-4.3,2.66c0,0-4.11-0.01-2.2-4.35
						s9.82-9.82,13.62-5.48c0,0,7.24-1.21,5.84,8.17c-1.85,12.36-7.63,10.32-9.08,7.5C412.38,288.97,414.03,288.97,414.03,288.97z"
						/>
					<path class="st2" d="M412.17,287.52c0,0,1.2-2.36,2.19-0.95c0.99,1.41-0.2,4.25-2.36,4.62L412.17,287.52z"/>
					<polygon class="st49" points="379.41,296.59 390.56,307.7 401.75,301.05 390.56,289.6 					"/>
					<polyline class="st99" points="389.62,302.53 389.62,300.04 391.97,300.04 391.97,294.8 					"/>
					<polyline class="st99" points="389.75,296.25 391.83,294.16 394.19,296.51 					"/>
					<path class="st2" d="M384.25,301.4c-0.04-0.07,0.87-1.01,1.57-1.72c0.2-0.2,0.54-0.01,0.46,0.27l-0.47,1.64
						c0,0,2.37-0.66,1.04,3.25l-2.3,0.62L384.25,301.4z"/>
					<path class="st52" d="M387.06,304.79c0,0,12.22,21.95,4.95,23.32c-7.27,1.38-7.61-22.6-7.61-22.6S385.11,304.5,387.06,304.79z"
						/>
					<path class="st52" d="M403.29,303.82c0,0-3.28,1.64-7.84,8.14c-6.19,8.82-9.04,14.08-3.29,16.02
						c1.46,0.49,11.5-10.05,11.5-10.05S407.76,309.2,403.29,303.82z"/>
					<path class="st52" d="M410.92,299.35l1.06-1.82c0,0,1.8-1.1,5.25-1.18l1.25,1.07C418.49,297.43,418.22,298.67,410.92,299.35z"
						/>
				</g>
				<g>
					<polygon class="st13" points="303.76,277.65 264.07,367.18 260.46,365.04 260.46,313.01 					"/>
					<polygon class="st13" points="307.37,279.8 307.37,342.18 264.07,367.18 264.07,315.15 					"/>
					<linearGradient id="SVGID_29_" gradientUnits="userSpaceOnUse" x1="264.5938" y1="281.2342" x2="313.5842" y2="379.2147">
						<stop  offset="0" style="stop-color:#FFFFFF;stop-opacity:0"/>
						<stop  offset="1" style="stop-color:#662D8D"/>
					</linearGradient>
					<polygon class="st55" points="307.37,279.8 307.37,342.18 264.07,367.18 264.07,315.15 					"/>
				</g>
				<g>
					<polygon class="st13" points="373.49,317.85 333.8,407.38 330.19,405.24 330.19,353.21 					"/>
					<polygon class="st13" points="377.1,319.99 377.1,382.38 333.8,407.38 333.8,355.35 					"/>
					<linearGradient id="SVGID_30_" gradientUnits="userSpaceOnUse" x1="297.947" y1="363.6855" x2="431.0771" y2="363.6855">
						<stop  offset="0" style="stop-color:#FFFFFF;stop-opacity:0"/>
						<stop  offset="1" style="stop-color:#662D8D"/>
					</linearGradient>
					<polygon class="st56" points="377.1,319.99 377.1,382.38 333.8,407.38 333.8,355.35 					"/>
				</g>
				<polygon class="st13" points="333.8,358.83 260.46,316.49 377.1,319.99 377.1,323.48 				"/>
				<linearGradient id="SVGID_31_" gradientUnits="userSpaceOnUse" x1="297.9469" y1="337.6641" x2="431.0764" y2="337.6641">
					<stop  offset="0" style="stop-color:#FFFFFF;stop-opacity:0"/>
					<stop  offset="1" style="stop-color:#662D8D"/>
				</linearGradient>
				<polygon class="st57" points="333.8,358.83 260.46,316.49 377.1,319.99 377.1,323.48 				"/>
				<polygon class="st2" points="333.8,355.35 260.46,313.01 303.76,277.65 377.1,319.99 				"/>
				<polygon class="st49" points="332.8,349.53 269,312.66 304.76,283.46 368.57,320.32 				"/>
				<linearGradient id="SVGID_32_" gradientUnits="userSpaceOnUse" x1="313.7458" y1="286.5994" x2="310.3217" y2="320.351">
					<stop  offset="3.946110e-03" style="stop-color:#FFFFFF;stop-opacity:0"/>
					<stop  offset="1" style="stop-color:#FDC870"/>
				</linearGradient>
				<path class="st58" d="M316.67,317.24l-24.32-14.05c-0.56-0.32-0.62-1.11-0.12-1.52l12.82-10.47c0.68-0.56,1.64-0.64,2.41-0.19
					l23.99,13.86c0.72,0.42,0.8,1.43,0.16,1.96l-12.52,10.22C318.4,317.61,317.44,317.69,316.67,317.24z"/>
				<linearGradient id="SVGID_33_" gradientUnits="userSpaceOnUse" x1="302.2011" y1="307.2914" x2="293.6006" y2="323.6028">
					<stop  offset="0" style="stop-color:#BA68C8;stop-opacity:0"/>
					<stop  offset="1" style="stop-color:#BA68C8"/>
				</linearGradient>
				<path class="st59" d="M305.77,325.96l-24.32-14.05c-0.56-0.32-0.62-1.11-0.12-1.52l6.34-5.06c0.68-0.56,1.64-0.64,2.41-0.19
					l23.99,13.86c0.72,0.42,0.8,1.43,0.16,1.96l-6.04,4.81C307.49,326.33,306.53,326.4,305.77,325.96z"/>
				<g>
					<linearGradient id="SVGID_34_" gradientUnits="userSpaceOnUse" x1="322.3955" y1="319.981" x2="314.3919" y2="335.1602">
						<stop  offset="1.694780e-03" style="stop-color:#00D4C8"/>
						<stop  offset="1" style="stop-color:#00D2C7;stop-opacity:0"/>
					</linearGradient>
					<path class="st60" d="M318.07,333.32l-7.93-4.54c-0.56-0.32-0.62-1.11-0.12-1.52l6.34-5.06c0.68-0.56,1.64-0.64,2.41-0.19
						l7.59,4.34c0.72,0.42,0.8,1.43,0.16,1.96l-6.04,4.81C319.79,333.69,318.83,333.76,318.07,333.32z"/>
					<linearGradient id="SVGID_35_" gradientUnits="userSpaceOnUse" x1="335.0236" y1="319.671" x2="327.2835" y2="344.8262">
						<stop  offset="1.694780e-03" style="stop-color:#EF5350"/>
						<stop  offset="1" style="stop-color:#EF5350;stop-opacity:0"/>
					</linearGradient>
					<path class="st61" d="M330.48,340.34l-8.46-5c-0.56-0.32-0.62-1.11-0.12-1.52l6.34-5.06c0.68-0.56,1.64-0.64,2.41-0.19
						l8.12,4.81c0.72,0.42,0.8,1.43,0.16,1.96l-6.04,4.81C332.2,340.71,331.24,340.78,330.48,340.34z"/>
				</g>
				<polygon class="st13" points="333.8,358.83 333.8,355.35 260.46,313.01 260.46,316.49 				"/>
				<path class="st107" d="M297.13,302.44c0.06-0.13,11.8-0.94,11.8-0.94l2.27,4.1h14.14l-3.06-1.46"/>
				<line class="st107" x1="325.35" y1="305.59" x2="325.35" y2="308.02"/>
				<ellipse class="st44" cx="338.48" cy="310.45" rx="1.47" ry="0.85"/>
				<ellipse class="st63" cx="342.74" cy="312.89" rx="1.47" ry="0.85"/>
				<path class="st44" d="M348.04,315.92c-0.58,0.33-1.51,0.33-2.08,0c-0.58-0.33-0.58-0.87,0-1.2c0.58-0.33,1.51-0.33,2.08,0
					C348.62,315.05,348.62,315.59,348.04,315.92z"/>
				<path class="st44" d="M352.3,318.35c-0.58,0.33-1.51,0.33-2.08,0c-0.58-0.33-0.58-0.87,0-1.2c0.58-0.33,1.51-0.33,2.08,0
					C352.88,317.48,352.88,318.02,352.3,318.35z"/>
				<path class="st44" d="M356.57,320.78c-0.58,0.33-1.51,0.33-2.08,0c-0.58-0.33-0.58-0.87,0-1.2c0.58-0.33,1.51-0.33,2.08,0
					C357.14,319.91,357.14,320.45,356.57,320.78z"/>
				<path class="st44" d="M336.01,313.72c-0.58,0.33-1.51,0.33-2.08,0c-0.58-0.33-0.58-0.87,0-1.2c0.58-0.33,1.51-0.33,2.08,0
					C336.59,312.85,336.59,313.39,336.01,313.72z"/>
				<path class="st44" d="M340.28,316.15c-0.58,0.33-1.51,0.33-2.08,0c-0.58-0.33-0.58-0.87,0-1.2c0.58-0.33,1.51-0.33,2.08,0
					C340.85,315.28,340.85,315.82,340.28,316.15z"/>
				<path class="st44" d="M344.54,318.58c-0.58,0.33-1.51,0.33-2.08,0c-0.58-0.33-0.58-0.87,0-1.2c0.58-0.33,1.51-0.33,2.08,0
					C345.11,317.71,345.11,318.25,344.54,318.58z"/>
				<path class="st63" d="M348.8,321.01c-0.58,0.33-1.51,0.33-2.08,0c-0.58-0.33-0.58-0.87,0-1.2c0.58-0.33,1.51-0.33,2.08,0
					C349.37,320.14,349.37,320.68,348.8,321.01z"/>
				<path class="st63" d="M353.06,323.44c-0.58,0.33-1.51,0.33-2.08,0c-0.58-0.33-0.58-0.87,0-1.2c0.58-0.33,1.51-0.33,2.08,0
					C353.64,322.57,353.64,323.11,353.06,323.44z"/>
				<path class="st63" d="M332.51,316.38c-0.58,0.33-1.51,0.33-2.08,0c-0.58-0.33-0.58-0.87,0-1.2c0.58-0.33,1.51-0.33,2.08,0
					C333.08,315.51,333.08,316.05,332.51,316.38z"/>
				<path class="st44" d="M336.77,318.81c-0.58,0.33-1.51,0.33-2.08,0c-0.58-0.33-0.58-0.87,0-1.2c0.58-0.33,1.51-0.33,2.08,0
					C337.35,317.94,337.35,318.48,336.77,318.81z"/>
				<ellipse class="st63" cx="339.99" cy="320.64" rx="1.47" ry="0.85"/>
				<path class="st44" d="M345.29,323.68c-0.58,0.33-1.51,0.33-2.08,0c-0.58-0.33-0.58-0.87,0-1.2c0.58-0.33,1.51-0.33,2.08,0
					C345.87,322.8,345.87,323.34,345.29,323.68z"/>
				<path class="st44" d="M349.55,326.11c-0.58,0.33-1.51,0.33-2.08,0c-0.58-0.33-0.58-0.87,0-1.2c0.58-0.33,1.51-0.33,2.08,0
					C350.13,325.24,350.13,325.77,349.55,326.11z"/>
				<path class="st44" d="M329,319.05c-0.58,0.33-1.51,0.33-2.08,0c-0.58-0.33-0.58-0.87,0-1.2c0.58-0.33,1.51-0.33,2.08,0
					C329.58,318.18,329.58,318.72,329,319.05z"/>
				<path class="st44" d="M333.26,321.48c-0.58,0.33-1.51,0.33-2.08,0c-0.58-0.33-0.58-0.87,0-1.2c0.58-0.33,1.51-0.33,2.08,0
					C333.84,320.61,333.84,321.15,333.26,321.48z"/>
				<path class="st44" d="M337.53,323.91c-0.58,0.33-1.51,0.33-2.08,0c-0.58-0.33-0.58-0.87,0-1.2c0.58-0.33,1.51-0.33,2.08,0
					C338.1,323.04,338.1,323.58,337.53,323.91z"/>
				<path class="st44" d="M341.79,326.34c-0.58,0.33-1.51,0.33-2.08,0c-0.58-0.33-0.58-0.87,0-1.2c0.58-0.33,1.51-0.33,2.08,0
					C342.36,325.47,342.36,326.01,341.79,326.34z"/>
				<path class="st63" d="M346.05,328.77c-0.58,0.33-1.51,0.33-2.08,0c-0.58-0.33-0.58-0.87,0-1.2c0.58-0.33,1.51-0.33,2.08,0
					C346.62,327.9,346.62,328.44,346.05,328.77z"/>
				<ellipse class="st63" cx="324.46" cy="321.11" rx="1.47" ry="0.85"/>
				<ellipse class="st44" cx="328.72" cy="323.54" rx="1.47" ry="0.85"/>
				<path class="st63" d="M334.02,326.57c-0.58,0.33-1.51,0.33-2.08,0c-0.58-0.33-0.58-0.87,0-1.2c0.58-0.33,1.51-0.33,2.08,0
					C334.6,325.7,334.6,326.24,334.02,326.57z"/>
				<ellipse class="st44" cx="337.24" cy="328.4" rx="1.47" ry="0.85"/>
				<path class="st63" d="M342.54,331.43c-0.58,0.33-1.51,0.33-2.08,0c-0.58-0.33-0.58-0.87,0-1.2c0.58-0.33,1.51-0.33,2.08,0
					C343.12,330.56,343.12,331.1,342.54,331.43z"/>
				<g>
					<line class="st108" x1="288.6" y1="307.73" x2="310.19" y2="320.36"/>
					<line class="st108" x1="287.02" y1="308.98" x2="308.62" y2="321.61"/>
					<line class="st108" x1="285.44" y1="310.24" x2="307.04" y2="322.87"/>
				</g>
				<g>
					<path class="st49" d="M277.51,309c0,0,8.04,8.55,8.56,17.05l-1.57,3.35l-3.24-2.36c0,0-2.3-11.17-6.47-14.51L277.51,309z"/>
					<path class="st50" d="M258.65,409.14c0,0-0.56,5.29,2.03,5.01c3.01-0.32,12.35-6.61,10.27-8.59c-2.08-1.98-9.87,1.6-9.87,1.6
						L258.65,409.14z"/>
					<path class="st50" d="M275.25,416.97c0,0-0.56,5.29,2.03,5.01c3.01-0.32,12.35-6.61,10.27-8.59c-2.08-1.98-9.87,1.6-9.87,1.6
						L275.25,416.97z"/>
					
						<rect x="267.34" y="285.12" transform="matrix(-1 -1.224647e-16 1.224647e-16 -1 540.2227 578.0697)" class="st2" width="5.54" height="7.82"/>
					<path class="st49" d="M278.78,327.31c0,0,8.91,20.34,2.22,90.17c-0.03,0.36-0.24,0.68-0.55,0.86
						c-1.17,0.67-4.13,1.87-5.66-2.07c-0.04-0.1-0.07-0.22-0.07-0.33l-5.81-73.14c-0.05-1.18-0.66-1.23-0.78-0.06l-3.56,66.87
						c-0.03,0.5-0.35,0.94-0.82,1.12c-1.56,0.59-4.98,1.27-5.62-3.65c0,0-6.05-72.33,1.02-82.14L278.78,327.31z"/>
					<path class="st50" d="M259.15,322.7c0.16,0.3,0.35,0.58,0.59,0.83c2.03,2.08,7.5,5.82,18.39,1.93
						c0.24-0.09,0.46-0.22,0.65-0.39v2.24c-0.19,0.17-0.41,0.3-0.65,0.39c-10.89,3.9-16.36,0.15-18.39-1.93
						c-0.24-0.25-0.43-0.53-0.59-0.83V322.7z"/>
					<path class="st53" d="M272.88,290.3l-5.54-1.26l-8.74-1.14c-2.14-0.28-3.68,2.81-3.83,6.13c-0.29,6.3,3.94,27.74,3.94,27.74
						c0.06,0.87,0.41,1.69,1.02,2.31c2.02,2.07,7.48,5.85,18.41,1.94c0.69-0.25,1.19-0.86,1.3-1.58l4.07-25.35
						c0.21-1.32-0.35-2.65-1.44-3.42L272.88,290.3z"/>
					<path class="st2" d="M279.78,275.28c0,0-0.67,7.57-3.8,11.45c-3.13,3.88-9.19-2.52-10.09-4.39s-2.36-13.57,7.03-13.57
						C279.02,268.77,280.09,272.56,279.78,275.28z"/>
					<path class="st49" d="M270.72,280c0,0,3.16-2.24,4.33-6.04c0,0,0.69-0.42,4.54,2.81c0,0,4.34-0.01,2.32-4.59
						c-2.02-4.58-10.36-10.36-14.37-5.79c0,0-7.64-1.27-6.16,8.63c1.95,13.04,8.06,10.89,9.58,7.91
						C272.46,280,270.72,280,270.72,280z"/>
					<path class="st2" d="M272.69,278.46c0,0-1.27-2.49-2.31-1s0.21,4.49,2.49,4.88L272.69,278.46z"/>
					<path class="st2" d="M318.48,323.03c0.08-0.02,0.83,1.14,1.39,2.02c0.16,0.26-0.12,0.56-0.39,0.41l-1.57-0.87
						c0,0,0.11,2.59-3.59,0.29l-0.09-2.52L318.48,323.03z"/>
					<path class="st52" d="M315.01,322.27c0,0-23.05-13.09-24.57-5.44c-1.52,7.66,23.78,8.24,23.78,8.24
						S315.29,324.34,315.01,322.27z"/>
					<path class="st52" d="M282.05,295.67c0,0,3.46,1.73,8.27,8.59c6.53,9.31,9.54,14.86,3.47,16.91
						c-1.54,0.52-12.14-10.61-12.14-10.61S277.34,301.34,282.05,295.67z"/>
					<path class="st52" d="M274,290.95l-1.12-1.92c0,0-1.9-1.16-5.54-1.24l-1.32,1.13C266.02,288.92,266.3,290.24,274,290.95z"/>
				</g>
			</g>
			
				<linearGradient id="SVGID_36_" gradientUnits="userSpaceOnUse" x1="-799.9565" y1="349.827" x2="-799.9565" y2="232.5357" gradientTransform="matrix(-0.999 -0.0439 0.0439 -0.999 -268.9176 438.0486)">
				<stop  offset="1.860120e-03" style="stop-color:#AC24B9"/>
				<stop  offset="1" style="stop-color:#2E2142"/>
			</linearGradient>
			<path class="st65" d="M523.38,150.64c4.57,12.38,21.54,28.26,35.49,22.31c6.9-2.94,10.66-12.61,6.04-18.52
				c-3.28-4.2-9.18-5.24-13.43-8.46c-3.79-2.88-6.02-7.31-8.89-11.11c-2.87-3.8-7.13-7.27-11.86-6.75
				c-9.92,1.11-9.94,14.8-7.61,21.81C523.2,150.15,523.29,150.39,523.38,150.64z"/>
		</g>
	</g>
</g>
<g id="Designed_by_Freepik">
</g>
</svg>
